<svg xmlns="http://www.w3.org/2000/svg" viewBox="0 0 256 256" role="img" aria-label="Coroa"><defs>
<linearGradient id="bg" x1="0" y1="0" x2="1" y2="1"><stop stop-color="#071523"/><stop offset="1" stop-color="#030b16"/></linearGradient>
<linearGradient id="steel" x1="0" y1="0" x2="1" y2="1"><stop stop-color="#f0f4ff"/><stop offset=".42" stop-color="#aebce3"/><stop offset="1" stop-color="#536b9f"/></linearGradient>
<filter id="depth3d" x="-60%" y="-60%" width="230%" height="240%" color-interpolation-filters="sRGB"><feGaussianBlur in="SourceAlpha" stdDeviation="3" result="soft"/><feOffset in="soft" dx="5" dy="9" result="offset"/><feComponentTransfer in="offset" result="shadow"><feFuncA type="linear" slope=".68"/></feComponentTransfer><feGaussianBlur in="SourceAlpha" stdDeviation="1.7" result="bevel"/><feSpecularLighting in="bevel" surfaceScale="5" specularConstant=".9" specularExponent="24" lighting-color="#fff" result="shine"><fePointLight x="45" y="25" z="150"/></feSpecularLighting><feComposite in="shine" in2="SourceAlpha" operator="in" result="shineCut"/><feGaussianBlur in="SourceGraphic" stdDeviation="6" result="aura"/><feComponentTransfer in="aura" result="auraSoft"><feFuncA type="linear" slope=".35"/></feComponentTransfer><feMerge><feMergeNode in="shadow"/><feMergeNode in="auraSoft"/><feMergeNode in="SourceGraphic"/><feMergeNode in="shineCut"/></feMerge></filter>
<linearGradient id="gold" x1="0" y1="0" x2="1" y2="1"><stop stop-color="#fff099"/><stop offset=".3" stop-color="#ffc635"/><stop offset=".7" stop-color="#d88a06"/><stop offset="1" stop-color="#925200"/></linearGradient></defs><rect width="256" height="256" rx="30" fill="url(#bg)"/><rect x="4" y="4" width="248" height="248" rx="27" fill="none" stroke="#6fa8ff" stroke-opacity=".09" stroke-width="2"/><g filter="url(#depth3d)"><path d="M43 79a13 13 0 1 0-7-12c0 5 3 10 7 12l20 91h130l20-91a13 13 0 1 0-13-2l-35 38-27-61a13 13 0 1 0-20 0l-27 61-35-38a13 13 0 0 0-13 2z" fill="url(#gold)"/><rect x="60" y="168" width="136" height="34" rx="13" fill="url(#gold)"/><path d="M70 176h116" stroke="#fff0a0" stroke-opacity=".7" stroke-width="5" stroke-linecap="round"/></g></svg>